# xmcd
#
# Track frame offsets:
#	150
#	19561
#	33359
#	55813
#	70223
#	84150
#	95783
#	119408
#	132631
#	146990
#
# Disc length: 2141 seconds
#
# Revision: 0
# Processed by: cddbd v1.5.2PL0 Copyright (c) Steve Scherf et al.
# Submitted via: EZCDAudioConverter 1.3.4.1
#
DISCID=8d085b0a
DTITLE=Paula Bagunca - Ea Tropa Maldita
DYEAR=1900
DGENRE=
TTITLE0=Apelo
TTITLE1=Grinfa Louca
TTITLE2=Olhos Risonhos
TTITLE3=Microfones Metalicos
TTITLE4=Tramba
TTITLE5=A Mente
TTITLE6=Olhar Animal
TTITLE7=Madalena
TTITLE8=Mensageiro
TTITLE9=Cristina
EXTD=
EXTT0=
EXTT1=
EXTT2=
EXTT3=
EXTT4=
EXTT5=
EXTT6=
EXTT7=
EXTT8=
EXTT9=
PLAYORDER=
